<?xml version="1.0" encoding="iso-8859-1"?>
<!-- Uploaded to: SVG Repo, www.svgrepo.com, Generator: SVG Repo Mixer Tools -->
<svg version="1.1" id="Layer_1" xmlns="http://www.w3.org/2000/svg" xmlns:xlink="http://www.w3.org/1999/xlink" 
	 viewBox="0 0 509 509" xml:space="preserve">
<circle style="fill:#6EB1E1;" cx="254.5" cy="254.5" r="254.5"/>
<path style="fill:#F1F3F7;" d="M482.4,261l-29.3-70.1c-9.1-21.9-30.5-36.1-54.2-36.1H68.1c-23.4,0-42.4,19-42.4,42.4v121.7
	c0,6.3,5.1,11.3,11.3,11.3h435c6.3,0,11.3-5.1,11.3-11.3v-53.5C483.3,263.9,483,262.4,482.4,261z"/>
<path style="fill:#FCFCFD;" d="M482.4,261l-29.3-70.1c-9.1-21.9-30.5-36.1-54.2-36.1H68.1c-23.4,0-42.4,19-42.4,42.4v7.4
	c0-23.4,19-42.4,42.4-42.4h330.7c23.7,0,45.1,14.2,54.2,36.1l29.3,70.1c0.6,1.4,0.9,2.9,0.9,4.4v-7.4
	C483.3,263.9,483,262.4,482.4,261z"/>
<path style="fill:#DEDEDF;" d="M25.7,317.7v1.1c0,6.3,5.1,11.3,11.3,11.3h435c6.3,0,11.3-5.1,11.3-11.3v-1.1H25.7z"/>
<path style="fill:#4B5AA7;" d="M25.7,277.3h457.6v-11.9c0-1.5-0.3-3-0.9-4.4l-4.8-11.4h-452v27.7H25.7z"/>
<g>
	<rect x="115.9" y="175.4" style="fill:#414753;" width="68.9" height="69.7"/>
	<rect x="193.5" y="175.4" style="fill:#414753;" width="187.4" height="69.7"/>
	<path style="fill:#414753;" d="M107.3,175.4H51.2c-5.5,0-10,4.5-10,10v49.7c0,5.5,4.5,10,10,10h56.1V175.4z"/>
	<path style="fill:#414753;" d="M447.7,198.2c-6.3-13.8-20.1-22.8-35.3-22.8h-22.8v22.8H447.7z"/>
	<path style="fill:#414753;" d="M467,245.1L450.1,204h-60.6v41.1h20l22.2,25.6c0,0,23.3,0,33.3,0S467,245.1,467,245.1z"/>
</g>
<rect x="264.9" y="186.2" style="fill:#393D47;" width="61.7" height="138.9"/>
<g>
	<rect x="267.5" y="188.8" style="fill:#F1F3F7;" width="27.2" height="133.7"/>
	<rect x="296.8" y="188.8" style="fill:#F1F3F7;" width="27.2" height="133.7"/>
</g>
<g>
	<path style="fill:#02050C;" d="M183.1,324.5c0-19.7-16-35.7-35.7-35.7s-35.7,16-35.7,35.7c0,1.9,0.2,3.8,0.5,5.7h70.5
		C182.9,328.3,183.1,326.5,183.1,324.5z"/>
	<path style="fill:#02050C;" d="M439.6,324.5c0-19.7-16-35.7-35.7-35.7s-35.7,16-35.7,35.7c0,1.9,0.2,3.8,0.5,5.7h70.5
		C439.4,328.3,439.6,326.5,439.6,324.5z"/>
</g>
<circle style="fill:#4F5565;" cx="147.3" cy="324.5" r="29.7"/>
<circle style="fill:#BDBDBE;" cx="147.3" cy="324.5" r="17.5"/>
<circle style="fill:#F1F3F7;" cx="147.3" cy="324.5" r="11"/>
<g>
	<circle style="fill:#646B79;" cx="147.3" cy="324.5" r="6.7"/>
	<ellipse style="fill:#646B79;" cx="147.3" cy="310.3" rx="2.1" ry="1.8"/>
	<ellipse style="fill:#646B79;" cx="147.3" cy="338.8" rx="2.1" ry="1.8"/>
	<ellipse style="fill:#646B79;" cx="161.6" cy="324.5" rx="1.8" ry="2.1"/>
	<ellipse style="fill:#646B79;" cx="133.1" cy="324.5" rx="1.8" ry="2.1"/>
	
		<ellipse transform="matrix(0.7071 -0.7071 0.7071 0.7071 -176.1877 203.4113)" style="fill:#646B79;" cx="157.445" cy="314.383" rx="1.8" ry="2.1"/>
	
		<ellipse transform="matrix(0.7071 -0.7071 0.7071 0.7071 -196.4091 195.106)" style="fill:#646B79;" cx="137.309" cy="334.64" rx="1.8" ry="2.1"/>
	
		<ellipse transform="matrix(0.707 0.7072 -0.7072 0.707 282.7675 -13.3399)" style="fill:#646B79;" cx="157.483" cy="334.592" rx="1.8" ry="2.1"/>
	
		<ellipse transform="matrix(0.707 0.7072 -0.7072 0.707 262.6135 -4.924)" style="fill:#646B79;" cx="137.249" cy="314.477" rx="1.8" ry="2.1"/>
</g>
<circle style="fill:#4F5565;" cx="403.8" cy="324.5" r="29.7"/>
<circle style="fill:#BDBDBE;" cx="403.8" cy="324.5" r="17.5"/>
<circle style="fill:#F1F3F7;" cx="403.8" cy="324.5" r="11"/>
<g>
	<circle style="fill:#646B79;" cx="403.8" cy="324.5" r="6.7"/>
	<ellipse style="fill:#646B79;" cx="403.8" cy="310.3" rx="2.1" ry="1.8"/>
	<ellipse style="fill:#646B79;" cx="403.8" cy="338.8" rx="2.1" ry="1.8"/>
	<ellipse style="fill:#646B79;" cx="418.1" cy="324.5" rx="1.8" ry="2.1"/>
	<ellipse style="fill:#646B79;" cx="389.6" cy="324.5" rx="1.8" ry="2.1"/>
	
		<ellipse transform="matrix(0.7071 -0.7071 0.7071 0.7071 -101.0667 384.7877)" style="fill:#646B79;" cx="413.946" cy="314.392" rx="1.8" ry="2.1"/>
	
		<ellipse transform="matrix(0.7071 -0.7071 0.7071 0.7071 -121.2546 376.4099)" style="fill:#646B79;" cx="393.74" cy="334.572" rx="1.8" ry="2.1"/>
	
		<ellipse transform="matrix(0.707 0.7072 -0.7072 0.707 357.9134 -194.7108)" style="fill:#646B79;" cx="413.946" cy="334.598" rx="1.8" ry="2.1"/>
	
		<ellipse transform="matrix(0.707 0.7072 -0.7072 0.707 337.7301 -186.3656)" style="fill:#646B79;" cx="393.783" cy="314.412" rx="1.8" ry="2.1"/>
</g>
<g>
	<rect x="272.5" y="196.2" style="fill:#393D47;" width="19.1" height="55.8"/>
	<rect x="299.9" y="196.2" style="fill:#393D47;" width="19.1" height="55.8"/>
</g>
<path style="fill:#333842;" d="M416.1,245.1l18.8,22.2h26.8c0,0,4.8-2.4,3.2-11.1c-1.6-8.7-4.2-11.1-4.2-11.1H416.1z"/>
<rect x="470" y="280.6" style="fill:#FBD303;" width="13.3" height="26.4"/>
<rect x="264.9" y="175.4" style="fill:#393D47;" width="61.7" height="13.4"/>
</svg>